<svg width="108" height="108" viewBox="0 0 108 108" fill="none" xmlns="http://www.w3.org/2000/svg">
<circle cx="54" cy="54" r="50" stroke="#E8CCCF" stroke-width="8"/>
<path d="M54 104C81.6142 104 104 81.6142 104 54C104 26.3858 81.6142 4 54 4" stroke="#B46F78" stroke-width="8"/>
<path d="M44.9713 48.448H37.2933V53.068C37.6453 52.6133 38.144 52.254 38.7893 51.99C39.4347 51.7113 40.146 51.572 40.9233 51.572C42.0087 51.572 42.9107 51.8067 43.6293 52.276C44.348 52.7307 44.876 53.3393 45.2133 54.102C45.5653 54.8647 45.7413 55.708 45.7413 56.632C45.7413 58.26 45.2867 59.58 44.3773 60.592C43.468 61.5893 42.148 62.088 40.4173 62.088C38.7893 62.088 37.4767 61.6553 36.4793 60.79C35.482 59.9247 34.9393 58.7733 34.8513 57.336H37.3153C37.4473 58.128 37.77 58.7513 38.2833 59.206C38.8113 59.6607 39.4787 59.888 40.2853 59.888C41.2827 59.888 42.0307 59.5873 42.5293 58.986C43.028 58.3847 43.2773 57.5853 43.2773 56.588C43.2773 55.6493 43.0207 54.916 42.5073 54.388C41.994 53.8453 41.2607 53.574 40.3073 53.574C39.6327 53.574 39.0387 53.7207 38.5253 54.014C38.0267 54.3073 37.66 54.696 37.4253 55.18H34.9833V46.226H44.9713V48.448ZM47.9419 54.124C47.9419 56.6027 48.3819 58.546 49.2619 59.954C50.1419 61.3473 51.6085 62.044 53.6619 62.044C55.7152 62.044 57.1819 61.34 58.0619 59.932C58.9419 58.524 59.3819 56.588 59.3819 54.124C59.3819 51.6747 58.9419 49.7533 58.0619 48.36C57.1819 46.952 55.7152 46.248 53.6619 46.248C51.6085 46.248 50.1419 46.9447 49.2619 48.338C48.3819 49.7313 47.9419 51.66 47.9419 54.124ZM56.8739 54.124C56.8739 55.9133 56.6539 57.2847 56.2139 58.238C55.7739 59.1913 54.9232 59.668 53.6619 59.668C52.3859 59.668 51.5279 59.1913 51.0879 58.238C50.6479 57.2847 50.4279 55.9133 50.4279 54.124C50.4279 52.3493 50.6479 50.9927 51.0879 50.054C51.5279 49.1153 52.3859 48.646 53.6619 48.646C54.9232 48.646 55.7739 49.1227 56.2139 50.076C56.6539 51.0147 56.8739 52.364 56.8739 54.124ZM64.5309 46.248C65.5135 46.248 66.3129 46.556 66.9289 47.172C67.5449 47.7733 67.8529 48.5947 67.8529 49.636C67.8529 50.6773 67.5449 51.4987 66.9289 52.1C66.3129 52.7013 65.5135 53.002 64.5309 53.002C63.5482 53.002 62.7415 52.7013 62.1109 52.1C61.4949 51.4987 61.1869 50.6773 61.1869 49.636C61.1869 48.5947 61.4949 47.7733 62.1109 47.172C62.7415 46.556 63.5482 46.248 64.5309 46.248ZM73.8369 46.446L65.0589 62H62.5949L71.3949 46.446H73.8369ZM62.9029 49.636C62.9029 50.1933 63.0495 50.6407 63.3429 50.978C63.6362 51.3007 64.0249 51.462 64.5089 51.462C64.9929 51.462 65.3815 51.2933 65.6749 50.956C65.9829 50.6187 66.1369 50.1787 66.1369 49.636C66.1369 49.0787 65.9829 48.6313 65.6749 48.294C65.3815 47.9567 64.9929 47.788 64.5089 47.788C64.0249 47.788 63.6362 47.9567 63.3429 48.294C63.0495 48.6313 62.9029 49.0787 62.9029 49.636ZM71.9229 55.444C72.9056 55.444 73.7049 55.7447 74.3209 56.346C74.9515 56.9473 75.2669 57.7687 75.2669 58.81C75.2669 59.8513 74.9515 60.68 74.3209 61.296C73.7049 61.8973 72.9056 62.198 71.9229 62.198C70.9549 62.198 70.1555 61.8973 69.5249 61.296C68.9089 60.68 68.6009 59.8513 68.6009 58.81C68.6009 57.7833 68.9089 56.9693 69.5249 56.368C70.1555 55.752 70.9549 55.444 71.9229 55.444ZM70.3169 58.81C70.3169 59.3673 70.4635 59.8147 70.7569 60.152C71.0502 60.4893 71.4389 60.658 71.9229 60.658C72.4069 60.658 72.7956 60.4893 73.0889 60.152C73.3969 59.8147 73.5509 59.3673 73.5509 58.81C73.5509 58.2673 73.3969 57.8273 73.0889 57.49C72.7956 57.1527 72.4069 56.984 71.9229 56.984C71.4389 56.984 71.0502 57.1527 70.7569 57.49C70.4635 57.8273 70.3169 58.2673 70.3169 58.81Z" fill="#B46F78"/>
</svg>
