<svg width="108" height="108" viewBox="0 0 108 108" fill="none" xmlns="http://www.w3.org/2000/svg">
<circle cx="54" cy="54" r="50" stroke="#D2E2F1" stroke-width="8"/>
<path d="M104 54C104 26.3858 81.6142 4 54 4" stroke="#1A55AF" stroke-width="8"/>
<path d="M34.0616 60.042C36.4376 58.414 38.337 56.8227 39.7596 55.268C41.197 53.6987 41.9156 52.2467 41.9156 50.912C41.9156 50.12 41.7176 49.4893 41.3216 49.02C40.9403 48.5507 40.317 48.316 39.4516 48.316C38.557 48.316 37.8823 48.6093 37.4276 49.196C36.973 49.768 36.7163 50.5893 36.6576 51.66H34.2156C34.3183 49.8853 34.861 48.5287 35.8436 47.59C36.841 46.6513 38.1096 46.182 39.6496 46.182C41.1603 46.182 42.341 46.5853 43.1916 47.392C44.057 48.184 44.4896 49.284 44.4896 50.692C44.4896 51.8213 44.1376 52.9653 43.4336 54.124C42.7443 55.2827 41.8643 56.3533 40.7936 57.336C39.723 58.304 38.6156 59.14 37.4716 59.844H44.8416V61.89H34.0616V60.042ZM57.5661 48.448H49.8881V53.068C50.2401 52.6133 50.7387 52.254 51.3841 51.99C52.0294 51.7113 52.7407 51.572 53.5181 51.572C54.6034 51.572 55.5054 51.8067 56.2241 52.276C56.9427 52.7307 57.4707 53.3393 57.8081 54.102C58.1601 54.8647 58.3361 55.708 58.3361 56.632C58.3361 58.26 57.8814 59.58 56.9721 60.592C56.0627 61.5893 54.7427 62.088 53.0121 62.088C51.3841 62.088 50.0714 61.6553 49.0741 60.79C48.0767 59.9247 47.5341 58.7733 47.4461 57.336H49.9101C50.0421 58.128 50.3647 58.7513 50.8781 59.206C51.4061 59.6607 52.0734 59.888 52.8801 59.888C53.8774 59.888 54.6254 59.5873 55.1241 58.986C55.6227 58.3847 55.8721 57.5853 55.8721 56.588C55.8721 55.6493 55.6154 54.916 55.1021 54.388C54.5887 53.8453 53.8554 53.574 52.9021 53.574C52.2274 53.574 51.6334 53.7207 51.1201 54.014C50.6214 54.3073 50.2547 54.696 50.0201 55.18H47.5781V46.226H57.5661V48.448ZM63.4186 46.248C64.4012 46.248 65.2006 46.556 65.8166 47.172C66.4326 47.7733 66.7406 48.5947 66.7406 49.636C66.7406 50.6773 66.4326 51.4987 65.8166 52.1C65.2006 52.7013 64.4012 53.002 63.4186 53.002C62.4359 53.002 61.6292 52.7013 60.9986 52.1C60.3826 51.4987 60.0746 50.6773 60.0746 49.636C60.0746 48.5947 60.3826 47.7733 60.9986 47.172C61.6292 46.556 62.4359 46.248 63.4186 46.248ZM72.7246 46.446L63.9466 62H61.4826L70.2826 46.446H72.7246ZM61.7906 49.636C61.7906 50.1933 61.9372 50.6407 62.2306 50.978C62.5239 51.3007 62.9126 51.462 63.3966 51.462C63.8806 51.462 64.2692 51.2933 64.5626 50.956C64.8706 50.6187 65.0246 50.1787 65.0246 49.636C65.0246 49.0787 64.8706 48.6313 64.5626 48.294C64.2692 47.9567 63.8806 47.788 63.3966 47.788C62.9126 47.788 62.5239 47.9567 62.2306 48.294C61.9372 48.6313 61.7906 49.0787 61.7906 49.636ZM70.8106 55.444C71.7932 55.444 72.5926 55.7447 73.2086 56.346C73.8392 56.9473 74.1546 57.7687 74.1546 58.81C74.1546 59.8513 73.8392 60.68 73.2086 61.296C72.5926 61.8973 71.7932 62.198 70.8106 62.198C69.8426 62.198 69.0432 61.8973 68.4126 61.296C67.7966 60.68 67.4886 59.8513 67.4886 58.81C67.4886 57.7833 67.7966 56.9693 68.4126 56.368C69.0432 55.752 69.8426 55.444 70.8106 55.444ZM69.2046 58.81C69.2046 59.3673 69.3512 59.8147 69.6446 60.152C69.9379 60.4893 70.3266 60.658 70.8106 60.658C71.2946 60.658 71.6832 60.4893 71.9766 60.152C72.2846 59.8147 72.4386 59.3673 72.4386 58.81C72.4386 58.2673 72.2846 57.8273 71.9766 57.49C71.6832 57.1527 71.2946 56.984 70.8106 56.984C70.3266 56.984 69.9379 57.1527 69.6446 57.49C69.3512 57.8273 69.2046 58.2673 69.2046 58.81Z" fill="#1A55AF"/>
</svg>
