<svg width="108" height="108" viewBox="0 0 108 108" fill="none" xmlns="http://www.w3.org/2000/svg">
<circle cx="54" cy="54" r="50" stroke="#D6D2E9" stroke-width="8"/>
<path d="M54 4C81.6142 4 104 26.3858 104 54C104 81.6142 81.6142 104 54 104C37.3419 104 22.5864 95.8537 13.5 83.3276" stroke="#5843BE" stroke-width="8"/>
<path d="M42.1521 50.648C41.8881 48.9173 40.9861 48.052 39.4461 48.052C38.3315 48.052 37.4955 48.4993 36.9381 49.394C36.3808 50.274 36.1021 51.66 36.1021 53.552L36.1241 54.3C36.3441 53.508 36.8208 52.8773 37.5541 52.408C38.2875 51.9387 39.1528 51.704 40.1501 51.704C41.6755 51.704 42.8708 52.1587 43.7361 53.068C44.6015 53.9773 45.0341 55.2607 45.0341 56.918C45.0341 57.9153 44.8361 58.81 44.4401 59.602C44.0441 60.3793 43.4501 61.0027 42.6581 61.472C41.8661 61.9267 40.8908 62.154 39.7321 62.154C37.4881 62.154 35.9481 61.4573 35.1121 60.064C34.2761 58.6707 33.8581 56.7567 33.8581 54.322C33.8581 51.5353 34.3055 49.4527 35.2001 48.074C36.0948 46.6953 37.5615 46.006 39.6001 46.006C41.1255 46.006 42.2915 46.4387 43.0981 47.304C43.9195 48.1693 44.3961 49.284 44.5281 50.648H42.1521ZM36.3441 56.632C36.3441 57.5853 36.6228 58.3847 37.1801 59.03C37.7375 59.6607 38.5588 59.976 39.6441 59.976C40.5681 59.976 41.3015 59.7047 41.8441 59.162C42.4015 58.6193 42.6801 57.864 42.6801 56.896C42.6801 55.8547 42.4015 55.0553 41.8441 54.498C41.2868 53.9407 40.5315 53.662 39.5781 53.662C38.7128 53.662 37.9575 53.9187 37.3121 54.432C36.6668 54.9453 36.3441 55.6787 36.3441 56.632ZM47.7412 50.076C47.7412 49.3133 47.9465 48.6167 48.3572 47.986C48.7678 47.3553 49.3765 46.8493 50.1832 46.468C51.0045 46.0867 51.9872 45.896 53.1312 45.896C54.2752 45.896 55.2505 46.0867 56.0572 46.468C56.8785 46.8493 57.4945 47.3553 57.9052 47.986C58.3305 48.6167 58.5432 49.3133 58.5432 50.076C58.5432 50.9267 58.3158 51.66 57.8612 52.276C57.4212 52.892 56.7612 53.3393 55.8812 53.618C56.8638 53.926 57.6192 54.4247 58.1472 55.114C58.6752 55.7887 58.9392 56.6173 58.9392 57.6C58.9392 59.1107 58.4038 60.2913 57.3332 61.142C56.2625 61.978 54.8618 62.396 53.1312 62.396C51.4005 62.396 49.9998 61.978 48.9292 61.142C47.8732 60.2913 47.3452 59.1107 47.3452 57.6C47.3452 56.6173 47.6092 55.7887 48.1372 55.114C48.6652 54.4247 49.4205 53.926 50.4032 53.618C49.5232 53.3393 48.8558 52.892 48.4012 52.276C47.9612 51.66 47.7412 50.9267 47.7412 50.076ZM50.2272 50.472C50.2272 51.264 50.4838 51.88 50.9972 52.32C51.5252 52.7453 52.2365 52.958 53.1312 52.958C54.0258 52.958 54.7372 52.7453 55.2652 52.32C55.7932 51.88 56.0572 51.264 56.0572 50.472C56.0572 49.68 55.7858 49.064 55.2432 48.624C54.7152 48.184 54.0112 47.964 53.1312 47.964C52.2512 47.964 51.5472 48.184 51.0192 48.624C50.4912 49.064 50.2272 49.68 50.2272 50.472ZM49.7872 57.468C49.7872 58.3627 50.0878 59.0667 50.6892 59.58C51.2905 60.0787 52.1045 60.328 53.1312 60.328C54.1578 60.328 54.9718 60.0787 55.5732 59.58C56.1745 59.0667 56.4752 58.3627 56.4752 57.468C56.4752 56.5587 56.1598 55.8767 55.5292 55.422C54.9132 54.9527 54.1138 54.718 53.1312 54.718C52.1632 54.718 51.3638 54.9527 50.7332 55.422C50.1025 55.8913 49.7872 56.5733 49.7872 57.468ZM64.1061 46.248C65.0887 46.248 65.8881 46.556 66.5041 47.172C67.1201 47.7733 67.4281 48.5947 67.4281 49.636C67.4281 50.6773 67.1201 51.4987 66.5041 52.1C65.8881 52.7013 65.0887 53.002 64.1061 53.002C63.1234 53.002 62.3167 52.7013 61.6861 52.1C61.0701 51.4987 60.7621 50.6773 60.7621 49.636C60.7621 48.5947 61.0701 47.7733 61.6861 47.172C62.3167 46.556 63.1234 46.248 64.1061 46.248ZM73.4121 46.446L64.6341 62H62.1701L70.9701 46.446H73.4121ZM62.4781 49.636C62.4781 50.1933 62.6247 50.6407 62.9181 50.978C63.2114 51.3007 63.6001 51.462 64.0841 51.462C64.5681 51.462 64.9567 51.2933 65.2501 50.956C65.5581 50.6187 65.7121 50.1787 65.7121 49.636C65.7121 49.0787 65.5581 48.6313 65.2501 48.294C64.9567 47.9567 64.5681 47.788 64.0841 47.788C63.6001 47.788 63.2114 47.9567 62.9181 48.294C62.6247 48.6313 62.4781 49.0787 62.4781 49.636ZM71.4981 55.444C72.4807 55.444 73.2801 55.7447 73.8961 56.346C74.5267 56.9473 74.8421 57.7687 74.8421 58.81C74.8421 59.8513 74.5267 60.68 73.8961 61.296C73.2801 61.8973 72.4807 62.198 71.4981 62.198C70.5301 62.198 69.7307 61.8973 69.1001 61.296C68.4841 60.68 68.1761 59.8513 68.1761 58.81C68.1761 57.7833 68.4841 56.9693 69.1001 56.368C69.7307 55.752 70.5301 55.444 71.4981 55.444ZM69.8921 58.81C69.8921 59.3673 70.0387 59.8147 70.3321 60.152C70.6254 60.4893 71.0141 60.658 71.4981 60.658C71.9821 60.658 72.3707 60.4893 72.6641 60.152C72.9721 59.8147 73.1261 59.3673 73.1261 58.81C73.1261 58.2673 72.9721 57.8273 72.6641 57.49C72.3707 57.1527 71.9821 56.984 71.4981 56.984C71.0141 56.984 70.6254 57.1527 70.3321 57.49C70.0387 57.8273 69.8921 58.2673 69.8921 58.81Z" fill="#5843BE"/>
</svg>
