<svg width="108" height="108" viewBox="0 0 108 108" fill="none" xmlns="http://www.w3.org/2000/svg">
<circle cx="54" cy="54" r="50" stroke="#EBE6D8" stroke-width="8"/>
<path d="M54 4C81.6142 4 104 26.3858 104 54C104 60.9181 102.595 67.508 100.055 73.5" stroke="#427A0A" stroke-width="8"/>
<path d="M40.6146 45.984C41.6413 45.984 42.5213 46.1673 43.2546 46.534C43.988 46.886 44.538 47.3773 44.9046 48.008C45.286 48.6387 45.4766 49.3427 45.4766 50.12C45.4766 51.1027 45.198 51.924 44.6406 52.584C44.098 53.2293 43.328 53.618 42.3306 53.75V53.86C43.4013 54.168 44.2373 54.63 44.8386 55.246C45.4546 55.8473 45.7626 56.6833 45.7626 57.754C45.7626 59.0593 45.33 60.1227 44.4646 60.944C43.5993 61.7507 42.36 62.154 40.7466 62.154C39.0893 62.154 37.7546 61.736 36.7426 60.9C35.7306 60.0493 35.1513 58.7953 35.0046 57.138H37.4906C37.5786 58.018 37.894 58.722 38.4366 59.25C38.9793 59.7633 39.7126 60.02 40.6366 60.02C41.502 60.02 42.162 59.7927 42.6166 59.338C43.086 58.8833 43.3206 58.2967 43.3206 57.578C43.3206 56.7127 42.9833 56.0527 42.3086 55.598C41.6486 55.1433 40.688 54.916 39.4266 54.916H38.8326V52.848H39.4266C41.8173 52.8773 43.0126 52.0633 43.0126 50.406C43.0126 49.6873 42.7926 49.1227 42.3526 48.712C41.9126 48.3013 41.3113 48.096 40.5486 48.096C39.786 48.096 39.148 48.3307 38.6346 48.8C38.1213 49.2547 37.8133 49.922 37.7106 50.802H35.2466C35.3493 49.2767 35.8626 48.096 36.7866 47.26C37.7106 46.4093 38.9866 45.984 40.6146 45.984ZM47.9571 60.042C50.3331 58.414 52.2325 56.8227 53.6551 55.268C55.0925 53.6987 55.8111 52.2467 55.8111 50.912C55.8111 50.12 55.6131 49.4893 55.2171 49.02C54.8358 48.5507 54.2125 48.316 53.3471 48.316C52.4525 48.316 51.7778 48.6093 51.3231 49.196C50.8685 49.768 50.6118 50.5893 50.5531 51.66H48.1111C48.2138 49.8853 48.7565 48.5287 49.7391 47.59C50.7365 46.6513 52.0051 46.182 53.5451 46.182C55.0558 46.182 56.2365 46.5853 57.0871 47.392C57.9525 48.184 58.3851 49.284 58.3851 50.692C58.3851 51.8213 58.0331 52.9653 57.3291 54.124C56.6398 55.2827 55.7598 56.3533 54.6891 57.336C53.6185 58.304 52.5111 59.14 51.3671 59.844H58.7371V61.89H47.9571V60.042ZM63.5856 46.248C64.5682 46.248 65.3676 46.556 65.9836 47.172C66.5996 47.7733 66.9076 48.5947 66.9076 49.636C66.9076 50.6773 66.5996 51.4987 65.9836 52.1C65.3676 52.7013 64.5682 53.002 63.5856 53.002C62.6029 53.002 61.7962 52.7013 61.1656 52.1C60.5496 51.4987 60.2416 50.6773 60.2416 49.636C60.2416 48.5947 60.5496 47.7733 61.1656 47.172C61.7962 46.556 62.6029 46.248 63.5856 46.248ZM72.8916 46.446L64.1136 62H61.6496L70.4496 46.446H72.8916ZM61.9576 49.636C61.9576 50.1933 62.1042 50.6407 62.3976 50.978C62.6909 51.3007 63.0796 51.462 63.5636 51.462C64.0476 51.462 64.4362 51.2933 64.7296 50.956C65.0376 50.6187 65.1916 50.1787 65.1916 49.636C65.1916 49.0787 65.0376 48.6313 64.7296 48.294C64.4362 47.9567 64.0476 47.788 63.5636 47.788C63.0796 47.788 62.6909 47.9567 62.3976 48.294C62.1042 48.6313 61.9576 49.0787 61.9576 49.636ZM70.9776 55.444C71.9602 55.444 72.7596 55.7447 73.3756 56.346C74.0062 56.9473 74.3216 57.7687 74.3216 58.81C74.3216 59.8513 74.0062 60.68 73.3756 61.296C72.7596 61.8973 71.9602 62.198 70.9776 62.198C70.0096 62.198 69.2102 61.8973 68.5796 61.296C67.9636 60.68 67.6556 59.8513 67.6556 58.81C67.6556 57.7833 67.9636 56.9693 68.5796 56.368C69.2102 55.752 70.0096 55.444 70.9776 55.444ZM69.3716 58.81C69.3716 59.3673 69.5182 59.8147 69.8116 60.152C70.1049 60.4893 70.4936 60.658 70.9776 60.658C71.4616 60.658 71.8502 60.4893 72.1436 60.152C72.4516 59.8147 72.6056 59.3673 72.6056 58.81C72.6056 58.2673 72.4516 57.8273 72.1436 57.49C71.8502 57.1527 71.4616 56.984 70.9776 56.984C70.4936 56.984 70.1049 57.1527 69.8116 57.49C69.5182 57.8273 69.3716 58.2673 69.3716 58.81Z" fill="#427A0A"/>
</svg>
