<svg width="26" height="26" viewBox="0 0 26 26" fill="none" xmlns="http://www.w3.org/2000/svg">
<path fill-rule="evenodd" clip-rule="evenodd" d="M17.3333 5.41667C16.735 5.41667 16.25 5.90169 16.25 6.5C16.25 7.09831 16.735 7.58333 17.3333 7.58333C17.9316 7.58333 18.4167 7.09831 18.4167 6.5C18.4167 5.90169 17.9316 5.41667 17.3333 5.41667ZM14.0833 6.5C14.0833 4.70507 15.5384 3.25 17.3333 3.25C19.1283 3.25 20.5833 4.70507 20.5833 6.5C20.5833 8.29493 19.1283 9.75 17.3333 9.75C15.5384 9.75 14.0833 8.29493 14.0833 6.5Z" fill="#A5AAB5"/>
<path fill-rule="evenodd" clip-rule="evenodd" d="M8.66667 11.9167C8.06836 11.9167 7.58333 12.4017 7.58333 13C7.58333 13.5983 8.06836 14.0833 8.66667 14.0833C9.26498 14.0833 9.75 13.5983 9.75 13C9.75 12.4017 9.26498 11.9167 8.66667 11.9167ZM5.41667 13C5.41667 11.2051 6.87174 9.75 8.66667 9.75C10.4616 9.75 11.9167 11.2051 11.9167 13C11.9167 14.7949 10.4616 16.25 8.66667 16.25C6.87174 16.25 5.41667 14.7949 5.41667 13Z" fill="#A5AAB5"/>
<path fill-rule="evenodd" clip-rule="evenodd" d="M17.3333 18.4167C16.735 18.4167 16.25 18.9017 16.25 19.5C16.25 20.0983 16.735 20.5833 17.3333 20.5833C17.9316 20.5833 18.4167 20.0983 18.4167 19.5C18.4167 18.9017 17.9316 18.4167 17.3333 18.4167ZM14.0833 19.5C14.0833 17.7051 15.5384 16.25 17.3333 16.25C19.1283 16.25 20.5833 17.7051 20.5833 19.5C20.5833 21.2949 19.1283 22.75 17.3333 22.75C15.5384 22.75 14.0833 21.2949 14.0833 19.5Z" fill="#A5AAB5"/>
<path fill-rule="evenodd" clip-rule="evenodd" d="M3.25 6.5C3.25 5.90169 3.73502 5.41667 4.33333 5.41667H15.1667C15.765 5.41667 16.25 5.90169 16.25 6.5C16.25 7.09831 15.765 7.58333 15.1667 7.58333H4.33333C3.73502 7.58333 3.25 7.09831 3.25 6.5Z" fill="#A5AAB5"/>
<path fill-rule="evenodd" clip-rule="evenodd" d="M9.75 13C9.75 12.4017 10.235 11.9167 10.8333 11.9167H21.6667C22.265 11.9167 22.75 12.4017 22.75 13C22.75 13.5983 22.265 14.0833 21.6667 14.0833H10.8333C10.235 14.0833 9.75 13.5983 9.75 13Z" fill="#A5AAB5"/>
<path fill-rule="evenodd" clip-rule="evenodd" d="M3.25 13C3.25 12.4017 3.73502 11.9167 4.33333 11.9167H6.5C7.09831 11.9167 7.58333 12.4017 7.58333 13C7.58333 13.5983 7.09831 14.0833 6.5 14.0833H4.33333C3.73502 14.0833 3.25 13.5983 3.25 13Z" fill="#A5AAB5"/>
<path fill-rule="evenodd" clip-rule="evenodd" d="M18.4167 6.5C18.4167 5.90169 18.9017 5.41667 19.5 5.41667H21.6667C22.265 5.41667 22.75 5.90169 22.75 6.5C22.75 7.09831 22.265 7.58333 21.6667 7.58333H19.5C18.9017 7.58333 18.4167 7.09831 18.4167 6.5Z" fill="#A5AAB5"/>
<path fill-rule="evenodd" clip-rule="evenodd" d="M18.4167 19.5C18.4167 18.9017 18.9017 18.4167 19.5 18.4167H21.6667C22.265 18.4167 22.75 18.9017 22.75 19.5C22.75 20.0983 22.265 20.5833 21.6667 20.5833H19.5C18.9017 20.5833 18.4167 20.0983 18.4167 19.5Z" fill="#A5AAB5"/>
<path fill-rule="evenodd" clip-rule="evenodd" d="M3.25 19.5C3.25 18.9017 3.73502 18.4167 4.33333 18.4167H15.1667C15.765 18.4167 16.25 18.9017 16.25 19.5C16.25 20.0983 15.765 20.5833 15.1667 20.5833H4.33333C3.73502 20.5833 3.25 20.0983 3.25 19.5Z" fill="#A5AAB5"/>
</svg>
