<svg width="22" height="22" viewBox="0 0 22 22" fill="none" xmlns="http://www.w3.org/2000/svg">
<path fill-rule="evenodd" clip-rule="evenodd" d="M8.83332 2.33332C5.24347 2.33332 2.33332 5.24347 2.33332 8.83332C2.33332 12.4232 5.24347 15.3333 8.83332 15.3333C12.4232 15.3333 15.3333 12.4232 15.3333 8.83332C15.3333 5.24347 12.4232 2.33332 8.83332 2.33332ZM0.166656 8.83332C0.166656 4.04686 4.04686 0.166656 8.83332 0.166656C13.6198 0.166656 17.5 4.04686 17.5 8.83332C17.5 13.6198 13.6198 17.5 8.83332 17.5C4.04686 17.5 0.166656 13.6198 0.166656 8.83332Z" fill="#A5AAB5"/>
<path fill-rule="evenodd" clip-rule="evenodd" d="M13.484 13.484C13.907 13.0609 14.593 13.0609 15.016 13.484L21.516 19.984C21.9391 20.407 21.9391 21.093 21.516 21.516C21.093 21.9391 20.407 21.9391 19.984 21.516L13.484 15.016C13.0609 14.593 13.0609 13.907 13.484 13.484Z" fill="#A5AAB5"/>
</svg>
